<svg id="Layer_35" enable-background="new 0 0 64 64" height="512" viewBox="0 0 64 64" width="512" xmlns="http://www.w3.org/2000/svg"><path d="m36.13 37.5c.59 1.44 1.3 2.5 2.36 2.5 3.25 0 3.25-10 6.5-10s3.25 10 6.51 10c1.34 0 2.12-1.7 2.81-3.69h.01l7.68 20.69v1h-32c1.66 0 3-1.34 3-3v-7.55z" fill="#b4dd7f"/><path d="m38.49 40c-1.06 0-1.77-1.06-2.36-2.5l3.64-11.58c.19-.58.46-1.12.8-1.59 1.01-1.41 2.64-2.29 4.43-2.33h.11c1.17 0 2.28.36 3.19 1 .92.64 1.65 1.56 2.06 2.65l3.96 10.66h-.01c-.69 1.99-1.47 3.69-2.81 3.69-3.26 0-3.26-10-6.51-10s-3.25 10-6.5 10z" fill="#e6e9ed"/><path d="m59 9-14 5v-10h1z" fill="#ff826e"/><path d="m19 16c0 .34.03.68.09 1h-.01-13.08c-2.21 0-4-1.79-4-4s1.79-4 4-4h.08c-.05-.32-.08-.66-.08-1 0-3.31 2.69-6 6-6 2.68 0 4.95 1.76 5.72 4.19.41-.11.83-.19 1.28-.19 2.45 0 4.49 1.77 4.92 4.1-2.8.51-4.92 2.96-4.92 5.9z" fill="#e6e9ed"/><path d="m17.26 36h8.74l5.32 3.8c1.06.75 1.68 1.97 1.68 3.26v4.39 7.55c0 1.66-1.34 3-3 3-.83 0-1.58-.34-2.12-.88s-.88-1.29-.88-2.12v-9.46c0-.34-.17-.65-.45-.84l-2.55-1.7h-1l-3.45 16.37c-.32 1.53-1.67 2.63-3.24 2.63-.91 0-1.74-.37-2.34-.97s-.97-1.43-.97-2.34v-.29c0-.27.03-.53.09-.78l1.85-7.62h3.06v-12h-1.13z" fill="#838f9b"/><path d="m18 38v12h-3.06-12.94v-12l.76 1.53c.68 1.37 1.73 2.49 2.99 3.26 1.25.78 2.72 1.21 4.25 1.21 3.06 0 5.87-1.73 7.24-4.47z" fill="#d3a06c"/><path d="m16.87 38h1.13l-.76 1.53c-1.37 2.74-4.18 4.47-7.24 4.47-1.53 0-3-.43-4.25-1.21-1.26-.77-2.31-1.89-2.99-3.26l-.76-1.53h6.34.38z" fill="#dfb28b"/><path d="m42 14.45c0 .38-.09.76-.26 1.1l-3.75 7.49-.05.1c-1.19 2.36-3.61 3.86-6.26 3.86h-3.68l-2 9h-8.74l1.74-9c-1.25 0-2.4.64-3.07 1.69l-5.24 8.23c-.43.67-1.17 1.08-1.97 1.08h-.38c-1.29 0-2.34-1.05-2.34-2.34 0-.43.12-.86.35-1.22l4.72-7.68c1.82-2.96 5.05-4.76 8.52-4.76h2.41 3 5.53c1.51 0 2.9-.86 3.58-2.21l3.21-6.43c.42-.84 1.27-1.36 2.2-1.36h.03c1.35 0 2.45 1.1 2.45 2.45z" fill="#fcd770"/><path d="m25 10c3.31 0 6 2.69 6 6s-2.69 6-6 6c-2.97 0-5.44-2.16-5.91-5-.06-.32-.09-.66-.09-1 0-2.94 2.12-5.39 4.92-5.9.35-.07.71-.1 1.08-.1z" fill="#f0d0b4"/><path d="m51.292 25.3c-.85-2.289-2.914-3.902-5.292-4.231v-6.365l15.876-5.67-15.69-6.034h-2.186v18.095c-2.417.406-4.43 2.121-5.186 4.524l-5.032 16.011c-.315-1.052-.963-1.989-1.876-2.641l-4.787-3.419 1.683-7.57h2.876c3.046 0 5.787-1.691 7.152-4.415l3.804-7.587c.24-.477.366-1.012.366-1.546 0-1.904-1.548-3.452-3.485-3.452-1.315 0-2.499.731-3.087 1.908l-3.217 6.434c-.511 1.023-1.539 1.658-2.683 1.658h-.638c1.3-1.272 2.11-3.042 2.11-5 0-3.86-3.14-7-7-7-.117 0-.23.012-.346.018-.828-2.373-3.07-4.018-5.654-4.018-.215 0-.431.014-.654.042-1.136-2.45-3.585-4.042-6.346-4.042-3.86 0-7 3.14-7 7 0 .034.008.067.008.1-2.283.462-4.008 2.483-4.008 4.9 0 2.757 2.243 5 5 5h12.295c.344 1.152.977 2.18 1.816 3h-.522c-3.792 0-7.381 2.006-9.368 5.235l-4.725 7.678c-.325.525-.496 1.13-.496 1.749 0 .476.104.928.285 1.338h-4.285v14h12.666l-1.545 6.381c-.08.333-.121.674-.121 1.014v.292c0 2.378 1.935 4.313 4.312 4.313 2.027 0 3.802-1.44 4.22-3.424l3.265-15.509 2.203 1.468v9.465c0 2.206 1.794 4 4 4h33v-2.18zm-5.292-20.229 10.124 3.894-10.124 3.616zm-5.278 21.148c.606-1.926 2.368-3.219 4.386-3.219 1.912 0 3.644 1.204 4.31 2.997l3.834 10.321c-.335.933-1.029 2.682-1.755 2.682-.899 0-1.709-2.491-2.301-4.309-.91-2.798-1.851-5.691-4.203-5.691-2.351 0-3.292 2.893-4.201 5.691-.591 1.818-1.4 4.309-2.298 4.309-.394 0-.84-.539-1.3-1.555zm-34.722-10.219c-1.654 0-3-1.346-3-3s1.346-3 3-3 3 1.346 3 3h2c0-2.411-1.716-4.43-3.992-4.898 0-.034-.008-.068-.008-.102 0-2.757 2.243-5 5-5 2.189 0 4.105 1.402 4.766 3.489l.288.91.922-.246c.393-.104.718-.153 1.024-.153 1.623 0 3.038.977 3.66 2.411-2.711.966-4.66 3.551-4.66 6.589zm14 0c0-2.757 2.243-5 5-5s5 2.243 5 5-2.243 5-5 5-5-2.243-5-5zm-13 19.662c0-.248.068-.49.198-.701l4.725-7.678c1.626-2.642 4.563-4.283 7.665-4.283h10.94c1.906 0 3.62-1.059 4.472-2.764l3.217-6.434c.247-.494.745-.802 1.331-.802.8 0 1.452.651 1.452 1.452 0 .225-.053.45-.154.65l-3.804 7.587c-1.023 2.042-3.079 3.311-5.363 3.311h-4.481l-2.001 9h-6.727l1.742-9h-1.212c-1.596 0-3.061.804-3.917 2.15l-5.237 8.23c-.248.389-.67.62-1.13.62h-.378c-.737 0-1.338-.601-1.338-1.338zm9.046 1.338h-4.224l4.948-7.776c.243-.382.573-.688.955-.898zm.336 2-.04.081c-1.209 2.417-3.639 3.919-6.342 3.919s-5.133-1.502-6.341-3.919l-.041-.081h4.72.378zm-13.382 2.682c1.702 2.075 4.232 3.318 7 3.318s5.298-1.243 7-3.318v7.318h-14zm25 13.318v-9.465c0-.67-.333-1.292-.891-1.664l-2.806-1.871h-2.114l-3.613 17.164c-.225 1.064-1.177 1.836-2.264 1.836-1.274 0-2.312-1.038-2.312-2.312v-.292c0-.183.022-.366.065-.544l1.659-6.852h3.276v-14h6.679l5.065 3.618c.786.561 1.256 1.474 1.256 2.441v11.941c0 1.103-.897 2-2 2s-2-.897-2-2zm5.444 2c.344-.591.556-1.268.556-2v-7.392l2.406-7.655c.513.582 1.188 1.047 2.088 1.047 2.351 0 3.292-2.893 4.201-5.691.591-1.818 1.4-4.309 2.298-4.309.899 0 1.709 2.491 2.301 4.309.91 2.798 1.85 5.691 4.203 5.691 1.278 0 2.147-.915 2.756-1.986l6.68 17.986z"/><path d="m56 53h2v2h-2z"/><path d="m52 53h2v2h-2z"/><path d="m48 53h2v2h-2z"/></svg>